<svg xmlns="http://www.w3.org/2000/svg" viewBox="0 0 760 170" role="img" aria-labelledby="t d"><title id="t">Szalai Automation</title><desc id="d">Szalai Automation logo</desc><defs><linearGradient id="g" x1="0" x2="1"><stop stop-color="#19d961"/><stop offset="1" stop-color="#68ff96"/></linearGradient></defs><g fill="none"><path d="M18 52c0-25 20-42 49-42h92l-17 28H66c-11 0-18 5-18 13 0 7 6 11 17 11h46c31 0 49 16 49 42 0 27-21 45-53 45H12l18-30h81c11 0 19-5 19-14 0-8-7-12-19-12H65C35 93 18 78 18 52Z" fill="#f5f7f6"/><path d="m145 149 72-139h40l74 139h-39l-16-32h-79l-16 32h-36Zm66-60h51l-25-51-26 51Z" fill="#f5f7f6"/><path d="M207 116 236 60l30 56h-59Z" fill="url(#g)"/><path d="M350 8v145" stroke="url(#g)" stroke-width="5" stroke-linecap="round"/><text x="380" y="80" fill="#f5f7f6" font-family="Inter,Arial,sans-serif" font-weight="800" font-size="49">Szalai</text><text x="516" y="80" fill="url(#g)" font-family="Inter,Arial,sans-serif" font-weight="800" font-size="49">Automation</text><text x="382" y="119" fill="#a7b0ad" font-family="Inter,Arial,sans-serif" font-size="20">Weboldalak. Automatizmusok. Valódi eredmények.</text></g></svg>